<svg width="22" height="22" viewBox="0 0 22 22" fill="none" xmlns="http://www.w3.org/2000/svg">
<path d="M7.38019 8.28514H14.6198" stroke="#D4D4D4" stroke-width="2" stroke-linecap="round" stroke-linejoin="round"/>
<path d="M7.38019 11.905H12.8099" stroke="#D4D4D4" stroke-width="2" stroke-linecap="round" stroke-linejoin="round"/>
<path d="M11.9049 16.4297L7.38017 19.1446V16.4297H5.57027C4.85024 16.4297 4.15971 16.1437 3.65057 15.6346C3.14144 15.1254 2.85541 14.4349 2.85541 13.7149V6.47523C2.85541 5.75521 3.14144 5.06467 3.65057 4.55554C4.15971 4.0464 4.85024 3.76038 5.57027 3.76038H16.4297C17.1497 3.76038 17.8403 4.0464 18.3494 4.55554C18.8585 5.06467 19.1446 5.75521 19.1446 6.47523V9.64257" stroke="#D4D4D4" stroke-width="2" stroke-linecap="round" stroke-linejoin="round"/>
<path d="M19.1446 13.7149H16.8822C16.5222 13.7149 16.1769 13.8579 15.9224 14.1124C15.6678 14.367 15.5248 14.7123 15.5248 15.0723C15.5248 15.4323 15.6678 15.7776 15.9224 16.0321C16.1769 16.2867 16.5222 16.4297 16.8822 16.4297H17.7872C18.1472 16.4297 18.4924 16.5727 18.747 16.8273C19.0016 17.0819 19.1446 17.4271 19.1446 17.7871C19.1446 18.1472 19.0016 18.4924 18.747 18.747C18.4924 19.0016 18.1472 19.1446 17.7872 19.1446H15.5248" stroke="#D4D4D4" stroke-width="2" stroke-linecap="round" stroke-linejoin="round"/>
<path d="M17.3347 19.1446V20.0495M17.3347 12.8099V13.7149" stroke="#D4D4D4" stroke-width="2" stroke-linecap="round" stroke-linejoin="round"/>
</svg>
